<svg width="1920" height="1955" viewBox="0 0 1920 1955" fill="none" xmlns="http://www.w3.org/2000/svg">
<path opacity="0.7" d="M1130.62 1942.76L960.229 977.113L1292.57 1899.09L1130.62 1942.76ZM876.386 1954.24L1130.62 1942.76L960.229 977.137L876.386 1954.24ZM789.816 1942.76L960.204 977.113L627.861 1899.12L789.816 1942.76ZM627.861 1899.12L960.229 977.113L402.018 1781.16L627.861 1899.12ZM332.727 1727.7L960.204 977.137L214.182 1608.4L332.727 1727.7ZM214.182 1608.4L960.229 977.113L77.1987 1392.64L214.182 1608.4ZM43.7934 1311.47L960.204 977.113L-11 1061.47L43.7934 1311.47ZM-11 1061.47L960.204 977.137L-11 892.785V1061.47ZM0.410662 805.684L960.229 977.113L71.1495 557.213L0.410662 805.684ZM77.1987 561.608L960.204 977.137L161.042 415.528L77.1987 561.608ZM214.182 345.816L960.204 977.113L332.727 226.551L214.182 345.816ZM332.727 226.551L960.229 977.137L547.215 88.7349L332.727 226.551ZM627.861 55.1265L960.204 977.113L789.816 11.4801L627.861 55.1265ZM789.816 11.4801L960.204 977.113L1044.05 0L789.816 11.4801ZM1130.62 11.4523L960.229 977.113L1292.55 55.1265L1130.62 11.4523ZM1292.55 55.1265L960.204 977.113L1518.42 173.088L1292.55 55.1265ZM1587.68 226.551L960.204 977.113L1706.23 345.816L1587.68 226.551ZM1706.23 345.816L960.204 977.113L1843.21 561.58L1706.23 345.816ZM1876.65 642.745L960.204 977.113L1920.03 805.684L1876.65 642.745ZM1920.03 805.684L960.229 977.113L1931.44 1061.43L1920.03 805.684ZM1920.03 1148.56L960.204 977.137L1876.62 1311.5L1920.03 1148.56ZM1876.62 1311.5L960.204 977.113L1759.39 1538.72L1876.62 1311.5ZM1706.25 1608.4L960.204 977.113L1587.68 1727.66L1706.25 1608.4ZM1587.68 1727.66L960.204 977.113L1373.23 1865.48L1587.68 1727.66Z" fill="url(#paint0_radial_363_35)"/>
<defs>
<radialGradient id="paint0_radial_363_35" cx="0" cy="0" r="1" gradientUnits="userSpaceOnUse" gradientTransform="translate(960.221 918.943) rotate(90) scale(922.975 917.402)">
<stop stop-color="white" stop-opacity="0.6"/>
<stop offset="1" stop-color="white" stop-opacity="0"/>
</radialGradient>
</defs>
</svg>
